<svg xmlns="http://www.w3.org/2000/svg" viewBox="0 0 1795 502.73"><defs><style>.cls-1{fill:#30a300;}</style></defs><g id="Layer_2" data-name="Layer 2"><g id="Layer_1-2" data-name="Layer 1"><path d="M0,297.61H71.27c4.9,23.4,28.3,38.63,57.68,38.63,31.55,0,49-13.6,49-31,0-19.05-21.21-22.31-39.71-25-11.43-2.18-31.56-5.44-43-7.62-44.07-8.16-81.61-32.1-81.61-80.52,0-47.88,37-85.42,105.55-85.42,68,0,110.45,31.55,115.89,87.05H167.58c-2.18-22.31-23.4-33.19-48.43-33.19-28.29,0-44.07,12-44.07,27.75,0,14.15,12.52,22.31,36.46,26.11,9.79,2.18,34.27,5.45,46.24,7.62,41.35,6,84.88,21.77,84.88,77.27,0,53.31-41.9,90.31-115.89,90.31C55.5,389.56,6,354.19,0,297.61Z"/><path d="M259.53,113.17h69.64V154c17.41-28.83,48.42-47.33,89.23-47.33,66.92,0,105.55,43,105.55,124.05V383H454.31V237.22c0-46.25-18.5-71.82-58.76-71.82-38.63,0-66.38,28.83-66.38,78.35V383H259.53Z"/><path d="M549.52,113.17h69.64V383H549.52ZM550.61,0h68V68h-68Z"/><path d="M645.27,113.17h69.65V151.8c17.41-23.94,45.16-45.16,90.86-45.16,76.17,0,132.21,60.93,132.21,142S882,389.56,805.23,389.56c-40.26,0-71.81-16.32-90.31-43.52V502.73H645.27Zm222,135.47c0-47.33-32.1-81.07-76.72-81.07-45.15,0-76.71,33.74-76.71,80.53,0,47.33,31.56,80.52,76.71,80.52C835.16,328.62,867.26,295.43,867.26,248.64Z"/><path d="M957,113.17h69.64V151.8c17.41-23.94,45.15-45.16,90.86-45.16,76.17,0,132.21,60.93,132.21,142s-56,140.92-132.76,140.92c-40.26,0-71.81-16.32-90.31-43.52V502.73H957Zm222,135.47c0-47.33-32.1-81.07-76.72-81.07-45.15,0-76.71,33.74-76.71,80.53,0,47.33,31.56,80.52,76.71,80.52C1146.92,328.62,1179,295.43,1179,248.64Z"/><path d="M1261.72,250.27c0-84.33,56-143.63,140.37-143.63,80,0,134.94,57.67,134.94,132.21a227.49,227.49,0,0,1-1.09,26.12H1330.28c3.26,42.43,32.64,67.46,70.73,67.46,27.74,0,47.87-13.6,57.12-34.28h71.28c-15.78,51.69-63.11,91.41-127.86,91.41C1319.39,389.56,1261.72,333,1261.72,250.27Zm70.19-28.83H1466.3c-2.18-35.37-28.84-58.22-64.21-58.22C1367.82,163.22,1339.53,182.27,1331.91,221.44Z"/><path d="M1551.79,113.17V41.35h69.65v71.82h66.92v58.21h-66.92V291.63c0,27.2,6.53,32.1,34.28,32.1h30.46V383H1634.5c-54.41,0-82.71-14.14-82.71-82.7V171.38"/><path class="cls-1" d="M1703.59,304.68H1795v97.4c0,41.34-25,74-72.91,74h-22.3V424.38h22.3c10.88,0,20.68-8.7,20.68-22.3V386.84h-39.18Zm2.73-191.51h87v81.61h-87Z"/></g></g></svg>